<?xml version="1.0" standalone="no"?>
<!DOCTYPE svg PUBLIC "-//W3C//DTD SVG 20010904//EN"
 "http://www.w3.org/TR/2001/REC-SVG-20010904/DTD/svg10.dtd">
<svg version="1.0" xmlns="http://www.w3.org/2000/svg"
 width="1280.000000pt" height="1280.000000pt" viewBox="0 0 1280.000000 1280.000000"
 preserveAspectRatio="xMidYMid meet">
<metadata>
Created by potrace 1.15, written by Peter Selinger 2001-2017
</metadata>
<g transform="translate(0.000000,1280.000000) scale(0.100000,-0.100000)"
fill="#ffffff" stroke="none">
<path d="M2321 12784 c-122 -33 -105 -17 -1184 -1093 -565 -565 -1041 -1046
-1057 -1070 -94 -140 -103 -331 -23 -471 16 -28 702 -722 1877 -1897 l1851
-1853 -1856 -1857 c-1511 -1512 -1860 -1867 -1878 -1906 -29 -64 -51 -152 -51
-202 0 -59 27 -161 57 -219 39 -74 2085 -2120 2159 -2159 137 -72 291 -74 427
-6 29 14 611 590 1899 1877 l1858 1857 1852 -1851 c1176 -1175 1870 -1861
1898 -1877 149 -86 343 -70 487 38 32 23 513 499 1069 1056 765 768 1017 1026
1037 1065 73 141 74 305 0 434 -16 28 -709 729 -1877 1898 l-1851 1852 1851
1853 c1168 1168 1861 1869 1877 1897 74 129 73 293 0 434 -20 39 -272 297
-1037 1065 -556 557 -1037 1033 -1069 1056 -144 108 -338 124 -487 38 -28 -16
-722 -702 -1898 -1877 l-1852 -1851 -1858 1857 c-1288 1287 -1870 1863 -1899
1877 -100 50 -219 63 -322 35z"/>
</g>
</svg>
