<?xml version="1.0" standalone="no"?>
<!DOCTYPE svg PUBLIC "-//W3C//DTD SVG 20010904//EN"
 "http://www.w3.org/TR/2001/REC-SVG-20010904/DTD/svg10.dtd">
<svg version="1.0" xmlns="http://www.w3.org/2000/svg"
 width="1280.000000pt" height="1280.000000pt" viewBox="0 0 1280.000000 1280.000000"
 preserveAspectRatio="xMidYMid meet">
<metadata>
Created by potrace 1.15, written by Peter Selinger 2001-2017
</metadata>
<g transform="translate(0.000000,1280.000000) scale(0.100000,-0.100000)"
fill="#000000" stroke="none">
<path d="M6095 12794 c-901 -48 -1763 -273 -2547 -665 -1884 -941 -3187 -2744
-3482 -4819 -49 -341 -60 -508 -60 -910 0 -502 31 -821 124 -1280 510 -2519
2511 -4508 5030 -4999 439 -86 755 -115 1240 -115 403 0 571 11 910 60 1374
197 2629 826 3614 1810 1072 1072 1705 2428 1853 3969 24 252 24 858 0 1110
-148 1541 -781 2897 -1853 3969 -1068 1068 -2441 1710 -3959 1851 -162 15
-716 27 -870 19z m-965 -6409 l0 -3745 -482 2 -483 3 -3 3730 c-1 2052 0 3736
3 3743 3 9 110 12 485 12 l480 0 0 -3745z m3535 0 l0 -3740 -482 -3 -483 -2 0
3745 0 3745 483 -2 482 -3 0 -3740z"/>
</g>
</svg>
