<?xml version="1.0" standalone="no"?>
<!DOCTYPE svg PUBLIC "-//W3C//DTD SVG 20010904//EN"
 "http://www.w3.org/TR/2001/REC-SVG-20010904/DTD/svg10.dtd">
<svg version="1.0" xmlns="http://www.w3.org/2000/svg"
 width="1280.000000pt" height="1232.000000pt" viewBox="0 0 1280.000000 1232.000000"
 preserveAspectRatio="xMidYMid meet">
<metadata>
Created by potrace 1.15, written by Peter Selinger 2001-2017
</metadata>
<g transform="translate(0.000000,1232.000000) scale(0.100000,-0.100000)"
fill="#8bc34a" stroke="none">
<path d="M6115 12310 c-629 -48 -1185 -176 -1742 -401 -175 -70 -520 -239
-683 -333 -1151 -668 -2028 -1697 -2510 -2946 -160 -417 -272 -849 -340 -1323
-14 -94 -4 -133 46 -177 l35 -30 1541 0 1540 0 38 38 c26 26 42 55 54 97 81
285 258 621 461 870 88 108 290 307 399 394 348 275 762 454 1195 518 155 22
479 22 651 -1 339 -46 637 -141 905 -289 102 -56 242 -150 301 -201 39 -34 39
-35 19 -54 -11 -11 -254 -234 -540 -497 -286 -262 -537 -494 -557 -516 -66
-72 -57 -164 21 -216 l34 -23 2286 0 c2223 0 2287 1 2315 19 15 10 37 32 47
47 18 28 19 92 19 2282 0 2490 5 2291 -63 2332 -32 20 -95 25 -129 12 -9 -4
-267 -256 -573 -561 l-556 -555 -52 51 c-125 120 -378 329 -552 454 -816 590
-1672 904 -2705 994 -200 18 -753 27 -905 15z"/>
<path d="M8463 6460 c-40 -24 -44 -31 -92 -179 -129 -391 -324 -706 -625
-1006 -323 -323 -717 -549 -1151 -660 -207 -53 -339 -69 -580 -69 -163 1 -245
6 -365 23 -437 63 -815 214 -1132 453 -43 33 -78 61 -78 63 0 2 249 233 553
513 303 280 563 522 577 536 33 36 36 127 5 168 -47 63 139 58 -2364 58
l-2278 0 -34 -23 c-19 -12 -42 -38 -51 -57 -17 -33 -18 -162 -18 -2267 0
-2466 -5 -2284 63 -2331 39 -26 104 -29 145 -8 15 8 272 260 571 559 l544 545
156 -137 c729 -641 1477 -1035 2351 -1236 436 -101 807 -139 1355 -139 408 -1
527 7 835 55 810 126 1562 416 2240 864 1213 801 2082 2037 2435 3464 58 234
125 604 125 694 0 50 -23 93 -63 117 -31 20 -62 20 -1562 20 -1497 0 -1531 0
-1562 -20z"/>
</g>
</svg>
